HIERARCHY
ROOT root
{
	OFFSET 0.000000 0.000000 0.000000
	CHANNELS 6 Xposition Yposition Zposition Zrotation Yrotation Xrotation
	JOINT lhip
	{
		OFFSET 0.058581 -0.082280 -0.017664
		CHANNELS 3 Zrotation Yrotation Xrotation
		JOINT lknee
		{
			OFFSET 0.043451 -0.386469 0.008037
			CHANNELS 3 Zrotation Yrotation Xrotation
			JOINT lankle
			{
				OFFSET -0.014790 -0.426874 -0.037428
				CHANNELS 3 Zrotation Yrotation Xrotation
				JOINT ltoe
				{
					OFFSET 0.041054 -0.060286 0.122042
					CHANNELS 3 Zrotation Yrotation Xrotation
					End Site
					{
						OFFSET 0.000000 0.000000 0.000000
					}
				}
			}
		}
	}
	JOINT rhip
	{
		OFFSET -0.060310 -0.090513 -0.013543
		CHANNELS 3 Zrotation Yrotation Xrotation
		JOINT rknee
		{
			OFFSET -0.043257 -0.383688 -0.004843
			CHANNELS 3 Zrotation Yrotation Xrotation
			JOINT rankle
			{
				OFFSET 0.019056 -0.420046 -0.034562
				CHANNELS 3 Zrotation Yrotation Xrotation
				JOINT rtoe
				{
					OFFSET -0.034840 -0.062106 0.130323
					CHANNELS 3 Zrotation Yrotation Xrotation
					End Site
					{
						OFFSET 0.000000 0.000000 0.000000
					}
				}
			}
		}
	}
	JOINT lowerback
	{
		OFFSET 0.004439 0.124404 -0.038385
		CHANNELS 3 Zrotation Yrotation Xrotation
		JOINT upperback
		{
			OFFSET 0.004488 0.137956 0.026820
			CHANNELS 3 Zrotation Yrotation Xrotation
			JOINT chest
			{
				OFFSET -0.002265 0.056032 0.002855
				CHANNELS 3 Zrotation Yrotation Xrotation
				JOINT lowerneck
				{
					OFFSET -0.013390 0.211636 -0.033468
					CHANNELS 3 Zrotation Yrotation Xrotation
					JOINT upperneck
					{
						OFFSET 0.010113 0.088937 0.050410
						CHANNELS 3 Zrotation Yrotation Xrotation
						End Site
						{
							OFFSET 0.000000 0.000000 0.000000
						}
					}
				}
				JOINT lclavicle
				{
					OFFSET 0.071702 0.114000 -0.018898
					CHANNELS 3 Zrotation Yrotation Xrotation
					JOINT lshoulder
					{
						OFFSET 0.122921 0.045205 -0.019046
						CHANNELS 3 Zrotation Yrotation Xrotation
						JOINT lelbow
						{
							OFFSET 0.255332 -0.015649 -0.022946
							CHANNELS 3 Zrotation Yrotation Xrotation
							JOINT lwrist
							{
								OFFSET 0.265709 0.012698 -0.007375
								CHANNELS 3 Zrotation Yrotation Xrotation
								End Site
								{
									OFFSET 0.000000 0.000000 0.000000
								}
							}
						}
					}
				}
				JOINT rclavicle
				{
					OFFSET -0.082954 0.112472 -0.023707
					CHANNELS 3 Zrotation Yrotation Xrotation
					JOINT rshoulder
					{
						OFFSET -0.113228 0.046853 -0.008472
						CHANNELS 3 Zrotation Yrotation Xrotation
						JOINT relbow
						{
							OFFSET -0.260127 -0.014369 -0.031269
							CHANNELS 3 Zrotation Yrotation Xrotation
							JOINT rwrist
							{
								OFFSET -0.269108 0.006794 -0.006027
								CHANNELS 3 Zrotation Yrotation Xrotation
								End Site
								{
									OFFSET 0.000000 0.000000 0.000000
								}
							}
						}
					}
				}
			}
		}
	}
}
MOTION
Frames: 13
Frame Time: 0.033333
0.995479 0.404035 1.005490 -83.868870 -4.134975 88.712611 6.508463 -7.591369 -9.535400 -8.629453 -15.315774 52.884513 0.498159 13.640780 -36.947748 0.000000 -0.000000 0.000000 -5.053170 -3.101620 -8.170707 1.483041 1.139192 15.982230 4.814449 -7.860773 -9.633171 0.000000 -0.000000 0.000000 -6.387656 2.388543 16.392966 1.280266 -6.995572 3.223581 -0.528046 -4.513990 8.111140 3.426326 0.194748 9.908681 4.668373 -5.388281 12.900385 -22.111411 5.356150 4.910172 -52.652343 -9.796323 2.493054 9.588844 -29.652451 3.044669 -1.547571 -2.319659 -12.357658 22.629466 -7.866848 -2.078280 63.265318 -2.775423 8.770980 -16.832199 27.232141 -5.167544 7.971188 -2.064538 -10.757321 
0.988327 0.411684 1.006133 -84.465792 -4.690855 88.719143 6.752521 -6.742730 -8.295975 -8.721180 -15.849275 51.761367 0.118897 12.710858 -36.217174 0.000000 -0.000000 0.000000 -5.125479 -2.932362 -7.668055 1.599497 1.444430 15.841527 4.617038 -7.761130 -10.107918 0.000000 -0.000000 0.000000 -6.572187 2.066955 16.397156 1.086903 -7.128681 3.221126 -0.500801 -4.571505 7.686360 3.318752 0.251892 10.270178 4.764733 -5.027755 12.887240 -22.467673 5.760932 5.027902 -52.348915 -9.088753 1.970647 9.664815 -29.910393 2.751944 -1.774665 -2.235407 -12.463116 22.891610 -7.777804 -1.759511 63.177302 -2.964499 8.501666 -16.535709 27.053050 -4.841612 8.416595 -2.114224 -9.752026 
0.984096 0.419167 1.006772 -83.961758 -5.109820 89.442255 7.302238 -6.905814 -9.405376 -9.166853 -15.955018 52.384037 0.009383 11.682264 -34.785367 0.000000 -0.000000 0.000000 -5.201811 -2.973233 -7.963775 1.855443 1.069285 15.499279 4.406422 -7.871890 -10.020816 0.000000 -0.000000 0.000000 -6.481229 1.704134 16.014488 1.256626 -7.527503 2.708126 -0.624883 -5.017975 7.794826 3.103206 0.751958 9.868735 4.402812 -4.766223 13.244990 -22.416485 5.938321 5.617255 -52.408453 -9.387642 1.830825 9.902060 -29.511833 2.298525 -1.268672 -2.191968 -12.442449 23.113099 -8.113074 -1.913952 63.325238 -2.844623 8.805846 -16.450178 26.575232 -4.829596 7.783912 -2.131837 -9.490537 
0.979836 0.425540 1.007673 -83.430644 -5.599677 89.453693 7.528619 -7.765827 -10.319800 -10.068844 -15.559935 54.120797 0.487821 10.566543 -32.275376 0.000000 -0.000000 0.000000 -5.398292 -2.877917 -7.208641 2.082212 0.978460 14.631933 4.025545 -8.233976 -10.143517 0.000000 -0.000000 0.000000 -6.522528 1.518624 15.872669 1.389348 -7.971463 3.117254 -0.658637 -4.916673 7.671267 2.895127 0.862139 9.589844 4.176205 -4.725591 13.387404 -22.200731 5.789149 4.940203 -52.558108 -9.558825 2.248660 9.839852 -28.861664 2.776383 -2.133170 -1.888618 -12.709253 23.191719 -8.083403 -1.992473 63.707876 -2.675734 9.129846 -16.774622 26.219932 -4.933026 8.448655 -2.246415 -9.885386 
0.975095 0.431068 1.008259 -83.031538 -5.916206 89.418990 7.472816 -8.285028 -11.863796 -10.391120 -14.961388 56.892271 0.720190 9.705443 -30.743481 0.000000 -0.000000 0.000000 -5.339573 -2.976364 -6.388403 2.036880 0.650638 13.711625 3.557384 -8.240342 -9.930591 0.000000 -0.000000 0.000000 -6.206296 1.708011 16.018542 1.474177 -8.125296 2.838405 -0.721341 -4.915779 7.630213 2.512108 0.660043 9.996340 4.457120 -4.661213 12.887697 -22.029873 5.486119 5.191938 -52.685401 -9.835229 2.424520 9.931256 -28.798627 3.089799 -2.416278 -2.104406 -12.768046 23.125171 -8.042298 -1.825745 63.813053 -2.751151 9.047311 -16.380056 26.211641 -4.466144 8.486967 -1.804244 -10.667607 
0.973111 0.435955 1.008654 -83.092573 -6.100926 89.772506 7.358369 -9.087514 -14.616668 -10.628355 -13.017107 60.790373 1.551213 10.300389 -30.960071 0.000000 -0.000000 0.000000 -5.303566 -2.950718 -6.431281 2.164342 0.718542 13.215736 3.715401 -8.078756 -9.723964 0.000000 -0.000000 0.000000 -5.854398 2.005388 16.496335 1.639928 -7.878769 1.437247 -0.719449 -4.766335 7.940446 2.132785 0.068467 9.901169 4.488017 -4.546121 13.479033 -21.954462 5.344783 5.326789 -52.954416 -10.068199 2.645102 10.068823 -29.175889 3.022037 -2.498318 -2.043934 -12.641069 22.869911 -7.850773 -1.626034 63.767227 -2.621254 9.361761 -16.118074 26.344262 -3.773438 9.428194 -1.789347 -10.933506 
0.969502 0.439244 1.008458 -83.538470 -6.254692 89.604015 6.655050 -9.465252 -17.082229 -9.346269 -10.398564 65.340593 2.825510 11.869163 -31.271205 0.000000 -0.000000 0.000000 -5.197142 -2.980588 -5.673002 2.098126 1.075524 12.526803 3.510838 -7.965554 -9.609268 0.000000 -0.000000 0.000000 -5.764451 2.867339 16.243390 1.868779 -7.707009 2.067689 -0.532561 -4.445791 7.809171 1.784193 -0.466259 10.297174 4.529632 -4.314866 12.993732 -21.758253 4.812587 5.502851 -53.584641 -10.254027 2.840204 10.454403 -30.053906 2.502013 -2.475107 -1.755223 -12.738138 22.724041 -7.109138 -1.328972 63.439388 -2.235206 9.494778 -16.366274 27.016565 -3.782973 10.428644 -2.445759 -10.749633 
0.969003 0.442515 1.007921 -84.162941 -6.224794 90.193956 6.552255 -11.212153 -21.305912 -9.182666 -6.442682 71.318492 3.251894 12.632887 -30.805867 0.000000 -0.000000 0.000000 -4.819076 -2.342904 -6.117253 1.928542 1.020548 12.150780 3.195744 -8.160988 -9.053228 0.000000 -0.000000 0.000000 -5.455349 3.597467 16.295897 2.168292 -7.335097 0.923181 -0.575426 -4.085767 8.183507 1.627500 -1.170317 10.674475 4.757082 -4.109195 13.090541 -21.668083 5.093922 5.576081 -53.974426 -10.577554 3.303339 10.615432 -30.888157 2.199733 -2.903913 -1.548177 -12.714716 22.720568 -7.197830 -1.062573 62.973410 -1.592082 9.979105 -16.674213 27.740105 -3.615983 10.974125 -2.442024 -11.188858 
0.964342 0.444531 1.007223 -85.858542 -6.330675 89.625626 5.065396 -10.405982 -23.210655 -8.754761 -3.885499 75.566539 3.922497 12.359229 -30.893328 0.000000 -0.000000 0.000000 -4.626522 -2.378683 -5.188090 1.647837 1.967629 11.937015 3.072661 -7.191033 -9.246476 0.000000 -0.000000 0.000000 -5.585757 5.066293 16.497690 2.196301 -6.790881 1.445679 -0.295318 -3.659311 7.829520 1.285382 -1.532555 11.767961 5.002031 -3.421982 12.247495 -21.668828 4.700370 5.630244 -54.293890 -9.794087 3.303825 10.935310 -32.018912 1.776497 -3.180100 -0.657200 -12.843271 22.525562 -6.420417 -0.660802 62.764962 -1.179447 9.496565 -17.337794 28.592653 -4.596436 11.941386 -2.618153 -11.339574 
0.966138 0.446983 1.005603 -85.001994 -5.455155 90.168186 5.413173 -11.936363 -28.065183 -9.186471 -0.553133 78.918676 4.059054 11.578896 -30.462622 0.000000 -0.000000 0.000000 -3.425904 -1.921562 -5.602077 1.658915 1.383690 11.423345 2.268902 -8.148437 -9.011934 0.000000 -0.000000 0.000000 -4.593152 4.774045 16.255990 2.741968 -6.954526 0.598535 -0.571246 -3.429865 8.745146 1.796182 -1.875192 10.892577 4.914146 -3.842440 13.068250 -21.574229 4.804660 5.449277 -54.590257 -10.178583 3.766264 11.063237 -32.180478 1.679096 -3.490418 -1.609093 -12.602478 22.236454 -6.550880 -1.007599 62.788942 -0.049182 10.222495 -17.866491 28.924440 -4.870961 12.260307 -2.346192 -12.941865 
0.960419 0.449005 1.004769 -87.379986 -5.417088 89.454559 3.839984 -10.322579 -27.923527 -8.520489 2.067584 77.536938 3.730063 10.336271 -30.019770 0.000000 -0.000000 0.000000 -3.292494 -1.871048 -4.304580 1.601642 2.426554 11.131185 2.443093 -6.639736 -8.982557 0.000000 -0.000000 0.000000 -4.926864 6.150619 16.154232 2.636461 -6.362303 1.644961 -0.367389 -2.926942 8.098893 1.875582 -1.852926 11.918429 5.203267 -3.744388 12.311411 -21.932693 4.867575 5.311093 -54.386117 -9.127511 3.501102 11.059690 -32.422424 1.008808 -3.432359 -0.973951 -11.329943 22.566565 -5.999108 -0.440471 62.214307 0.636358 9.753208 -17.885359 29.666924 -5.769664 10.854136 -2.199494 -12.147270 
0.956553 0.451266 1.003842 -87.932080 -4.866126 88.953718 2.605998 -9.451724 -27.550985 -8.571143 2.993928 72.735607 2.826796 8.803222 -27.028698 0.000000 -0.000000 0.000000 -2.552506 -1.994894 -3.159912 1.450227 2.415876 10.508488 2.282832 -5.773318 -8.938791 0.000000 -0.000000 0.000000 -4.631638 6.409110 16.133210 2.680216 -6.286066 1.912760 -0.267870 -2.708610 7.975544 2.006003 -1.608649 12.148888 5.225489 -3.796974 12.446446 -22.253206 5.086995 5.005013 -54.379380 -8.532596 3.367247 11.118168 -31.617107 0.636380 -3.933308 -1.482889 -10.322591 22.779295 -5.822486 -0.291358 61.923322 1.082017 9.560550 -18.000911 30.418247 -5.870860 10.913690 -1.525102 -11.874791 
0.954816 0.453740 1.003071 -87.764284 -4.109128 89.141122 1.736008 -9.531590 -26.694816 -9.920077 2.511452 64.633436 1.573289 7.052138 -23.638049 0.000000 -0.000000 0.000000 -1.551619 -1.608678 -2.940156 1.493641 2.174037 10.112079 1.906843 -6.074538 -9.107334 0.000000 -0.000000 0.000000 -4.160961 5.694066 15.880127 2.642908 -6.296878 1.008594 -0.389597 -2.642385 8.425029 2.226738 -1.535066 12.390501 5.167520 -3.873148 12.816772 -22.421096 5.832956 4.699760 -54.306789 -8.006636 3.538794 11.040813 -30.740312 0.251185 -4.300793 -1.141285 -10.091765 22.760859 -6.378758 -0.497076 62.142953 1.477315 10.093652 -17.708204 31.009444 -5.367254 10.506952 -1.886248 -11.856342 
